<?xml version="1.0" encoding="UTF-8"?>
<svg version="1.1" xmlns="http://www.w3.org/2000/svg" width="500" height="500">
<path d="M0 0 C1.77023629 1.32170566 3.49936788 2.69992024 5.1875 4.125 C9.63822546 7.86351499 9.63822546 7.86351499 14.15625 11.51953125 C15.65671875 12.71642578 15.65671875 12.71642578 17.1875 13.9375 C18.10917969 14.66839844 19.03085937 15.39929688 19.98046875 16.15234375 C20.64691406 16.76207031 21.31335938 17.37179688 22 18 C22 18.66 22 19.32 22 20 C22.721875 20.2475 23.44375 20.495 24.1875 20.75 C27.27606582 22.12269592 29.51011418 23.72353296 32 26 C32 26.66 32 27.32 32 28 C32.56589844 28.2475 33.13179687 28.495 33.71484375 28.75 C36.36993091 30.20235537 38.33739284 31.95184721 40.5625 34 C42.99729578 36.23360692 45.24337668 38.16225112 48 40 C48 40.66 48 41.32 48 42 C49.0209375 42.309375 49.0209375 42.309375 50.0625 42.625 C53.91639375 44.42895027 57.07787764 46.9010345 60 50 C60 50.66 60 51.32 60 52 C60.79664063 52.33451172 60.79664063 52.33451172 61.609375 52.67578125 C64.82457828 54.45675169 67.48386081 56.79403462 70.25 59.1875 C70.82556641 59.67927734 71.40113281 60.17105469 71.99414062 60.67773438 C75.19377855 63.41771612 78.35515057 66.19724297 81.5 69 C84.18544525 71.37580271 86.9154013 73.16591429 90 75 C91.66813704 76.665195 93.33450169 78.33216579 95 80 C97.25572999 82.04241976 99.56186311 84.0230457 101.875 86 C102.46152344 86.50789063 103.04804688 87.01578125 103.65234375 87.5390625 C106.61548411 90.07889709 109.61155835 92.48296364 112.80078125 94.734375 C115.93007493 96.95048041 118.32401808 99.26178594 121 102 C125.71513615 106.33858014 130.50773579 110.58325793 135.375 114.75 C140.21772226 119.02529217 143.6977233 122.39686542 144.2265625 129.0703125 C144 131 144 131 141.9375 133.875 C135.63644291 138.43321151 129.6010776 138.25567235 122.125 138.125 C120.37174434 138.1022553 118.6184779 138.08033191 116.86520386 138.05905151 C115.95396193 138.04794783 115.04271999 138.03684414 114.10386467 138.02540398 C113.40958933 138.01702066 112.71531399 138.00863735 112 138 C112.07068632 139.28865337 112.14137264 140.57730675 112.21420097 141.90501022 C112.85822865 154.14399338 113.14489416 166.33657177 113.12939453 178.59082031 C113.13075483 180.44136082 113.13253825 182.29190106 113.13470459 184.1424408 C113.13920046 189.09412986 113.13752328 194.04579771 113.1343255 198.99748707 C113.13176536 204.21021894 113.13414908 209.42294919 113.13571167 214.63568115 C113.13752087 223.37024253 113.13515803 232.10479539 113.13037109 240.83935547 C113.12491037 250.91944214 113.12670925 260.99950865 113.1321975 271.07959485 C113.13673996 279.77308234 113.13737424 288.46656377 113.13475883 297.16005206 C113.13320493 302.33612826 113.13297834 307.51219498 113.13629532 312.68827057 C113.13919123 317.54429634 113.13716679 322.40029608 113.13140106 327.25631905 C113.13008357 329.03281931 113.13045034 330.80932178 113.13266373 332.58582115 C113.1354146 335.01852665 113.13194659 337.45114979 113.12698364 339.8838501 C113.12921436 340.57869924 113.13144509 341.27354838 113.13374341 341.98945355 C113.11357666 347.1192511 112.57518172 351.82336451 112 357 C80.98 357 49.96 357 18 357 C17.31980096 346.79701433 16.88391296 336.857426 16.97265625 326.66796875 C16.979632 325.2560511 16.98583537 323.84412944 16.99131775 322.4322052 C17.01539203 316.52186464 17.05138736 310.61163649 17.09594727 304.70141602 C17.12291726 301.05312614 17.13982995 297.40489629 17.15081596 293.75652504 C17.15695774 292.38317937 17.16687501 291.00984447 17.18089485 289.63655663 C17.38878943 275.29176089 17.38878943 275.29176089 12.5625 262 C12.15128906 261.278125 11.74007812 260.55625 11.31640625 259.8125 C9.95751142 257.72088164 9.95751142 257.72088164 7 256 C7 255.34 7 254.68 7 254 C5.3369416 253.32438252 3.66905395 252.66066719 2 252 C0.88625 251.46375 -0.2275 250.9275 -1.375 250.375 C-9.84364215 247.29113597 -19.34659815 247.75003183 -27.5 251.4375 C-35.17709739 255.8391736 -39.63216462 261.65213671 -42.36369324 270.05781555 C-43.75451328 276.48875316 -43.33760237 283.16706152 -43.2578125 289.71484375 C-43.24965833 291.33711587 -43.24300166 292.95939614 -43.23776245 294.5816803 C-43.22073062 298.83417305 -43.18654383 303.08634106 -43.14770508 307.33868408 C-43.08829205 314.13908028 -43.05437655 320.93963685 -43.02193832 327.74020576 C-43.0081267 330.09869095 -42.98651126 332.45700175 -42.96365356 334.81541443 C-42.95361576 336.28180826 -42.94374987 337.74820329 -42.93408203 339.21459961 C-42.92281281 340.4798497 -42.91154358 341.74509979 -42.89993286 343.0486908 C-43.01803312 347.71206639 -43.53582801 352.35828007 -44 357 C-75.02 357 -106.04 357 -138 357 C-139.125 350.25 -139.125 350.25 -139.12304783 346.95083046 C-139.12503888 346.20040431 -139.12702993 345.44997815 -139.12908131 344.67681181 C-139.12471205 343.46570583 -139.12471205 343.46570583 -139.12025452 342.23013306 C-139.12110894 341.35929341 -139.12196337 340.48845376 -139.12284368 339.59122503 C-139.1244877 336.68009899 -139.11899477 333.76903087 -139.11352539 330.85791016 C-139.11324326 328.76838177 -139.11340176 326.67885328 -139.1139679 324.58932495 C-139.11425486 318.92043087 -139.10837436 313.25155794 -139.10139394 307.58266878 C-139.09514367 301.65695077 -139.09455527 295.73123227 -139.09336853 289.80551147 C-139.09026016 278.58592817 -139.08205341 267.36635461 -139.07201904 256.1467756 C-139.06084259 243.3729993 -139.05534359 230.59922253 -139.05032361 217.82544255 C-139.0398704 191.55028963 -139.02228049 165.27514536 -139 139 C-139.56396484 138.98541748 -140.12792969 138.97083496 -140.70898438 138.95581055 C-143.30661946 138.88055146 -145.90307643 138.78415516 -148.5 138.6875 C-149.8303125 138.65366211 -149.8303125 138.65366211 -151.1875 138.61914062 C-157.71779378 138.35504786 -163.82659994 137.59641823 -169.0625 133.3125 C-170.57893244 129.57196664 -170.4201202 126.68084966 -169 123 C-161.7597039 112.43308137 -150.17717555 104.37681836 -140.3125 96.375 C-135.53248401 92.4974059 -130.98830198 88.40159267 -126.453125 84.2421875 C-118.52961672 77 -118.52961672 77 -116 77 C-116 76.34 -116 75.68 -116 75 C-114.41796875 73.58984375 -114.41796875 73.58984375 -112.1875 71.9375 C-104.36730147 66.02316746 -96.78698045 59.84211721 -89.55859375 53.21484375 C-88 52 -88 52 -86 52 C-86 51.34 -86 50.68 -86 50 C-84.19921875 48.37109375 -84.19921875 48.37109375 -81.6875 46.4375 C-80.77742188 45.7259375 -79.86734375 45.014375 -78.9296875 44.28125 C-77.96289062 43.5284375 -76.99609375 42.775625 -76 42 C-70.3558498 37.50928649 -64.90949542 33.02563395 -59.89453125 27.83984375 C-48.73248408 17 -48.73248408 17 -45 17 C-45 16.34 -45 15.68 -45 15 C-43.63671875 13.80859375 -43.63671875 13.80859375 -41.6875 12.4375 C-38.15385965 9.8920281 -34.82383494 7.18890211 -31.5 4.375 C-21.28064276 -3.92384703 -12.33976515 -7.09088222 0 0 Z M-31.625 70 C-35.96908677 76.31867167 -35.81036859 82.4703252 -35 90 C-32.89993745 95.96267761 -28.20523628 100.55618858 -23 104 C-16.88208086 106.75906157 -10.45510951 106.45926678 -4 105 C1.7055479 102.2035308 5.97205559 97.54245476 9 92 C9.92466753 89.6272914 9.92466753 89.6272914 10 87 C10.05027344 86.319375 10.10054687 85.63875 10.15234375 84.9375 C10.47896246 77.20316885 8.05741743 71.31061776 2.8671875 65.578125 C-1.55794194 61.83805744 -6.85105204 60.30699257 -12.5 59.5 C-20.77440939 60.68205848 -26.33928914 63.49450971 -31.625 70 Z M-106 154 C-106 174.13 -106 194.26 -106 215 C-93.79 215 -81.58 215 -69 215 C-67.65950473 212.31900947 -67.8801948 210.26688794 -67.88647461 207.26513672 C-67.88655014 206.06404266 -67.88662567 204.86294861 -67.88670349 203.62545776 C-67.89186478 202.32335358 -67.89702606 201.02124939 -67.90234375 199.6796875 C-67.90420862 198.33733167 -67.9056322 196.99497516 -67.90663147 195.65261841 C-67.91045122 192.11804325 -67.92027688 188.58350913 -67.93133545 185.0489502 C-67.94156122 181.44279536 -67.94613159 177.8366339 -67.95117188 174.23046875 C-67.96189962 167.15362904 -67.97896955 160.0768172 -68 153 C-73.09032841 152.97531916 -78.18062215 152.95714918 -83.27099609 152.94506836 C-85.00342414 152.94003318 -86.73584792 152.93320468 -88.46826172 152.92456055 C-90.95541433 152.91245935 -93.44251087 152.90676362 -95.9296875 152.90234375 C-97.09538773 152.89460182 -97.09538773 152.89460182 -98.28463745 152.88670349 C-102.27170906 152.79671948 -102.27170906 152.79671948 -106 154 Z M-32 153 C-32 173.46 -32 193.92 -32 215 C-19.46 215 -6.92 215 6 215 C6 194.54 6 174.08 6 153 C-6.54 153 -19.08 153 -32 153 Z M42 154 C41.90608704 155.90243762 41.88256342 157.80838459 41.88647461 159.71313477 C41.88655014 160.9343251 41.88662567 162.15551544 41.88670349 163.41371155 C41.89181089 164.75627686 41.89702689 166.09884175 41.90234375 167.44140625 C41.90420801 168.80761158 41.90563187 170.17381757 41.90663147 171.5400238 C41.91045606 175.14201695 41.92028583 178.74397 41.93133545 182.34594727 C41.94155084 186.01903735 41.94618406 189.69213408 41.95117188 193.36523438 C41.96137797 200.57685837 41.98094962 207.78837215 42 215 C54.54 215 67.08 215 80 215 C80.02094515 207.07109685 80.04098329 199.14229335 80.05175018 191.21338654 C80.05704002 187.52139609 80.06411374 183.82942845 80.07543945 180.13745117 C80.08627162 176.58429169 80.09227753 173.03115437 80.09487724 169.47797966 C80.0967309 168.11954334 80.10035038 166.76110829 80.10573006 165.40268135 C80.11294475 163.50617777 80.11340809 161.60965207 80.11352539 159.71313477 C80.115746 158.63169693 80.11796661 157.55025909 80.12025452 156.43605042 C80.2758197 154.05202528 80.2758197 154.05202528 79 153 C76.34543807 152.89904436 73.71744824 152.86029002 71.0625 152.8671875 C70.267229 152.86623077 69.47195801 152.86527405 68.65258789 152.86428833 C66.9679354 152.86360657 65.28328029 152.86546057 63.59863281 152.86962891 C61.01100803 152.87497725 58.42355684 152.86968381 55.8359375 152.86328125 C54.20312461 152.86394203 52.57031184 152.8652232 50.9375 152.8671875 C50.15834229 152.86516327 49.37918457 152.86313904 48.57641602 152.86105347 C44.992058 152.5416042 44.992058 152.5416042 42 154 Z M-106 247 C-106 267.46 -106 287.92 -106 309 C-93.46 309 -80.92 309 -68 309 C-68 288.54 -68 268.08 -68 247 C-80.54 247 -93.08 247 -106 247 Z M42 247 C41.97905485 254.92890315 41.95901671 262.85770665 41.94824982 270.78661346 C41.94295998 274.47860391 41.93588626 278.17057155 41.92456055 281.86254883 C41.91372838 285.41570831 41.90772247 288.96884563 41.90512276 292.52202034 C41.9032691 293.88045666 41.89964962 295.23889171 41.89426994 296.59731865 C41.88705525 298.49382223 41.88659191 300.39034793 41.88647461 302.28686523 C41.884254 303.36830307 41.88203339 304.44974091 41.87974548 305.56394958 C41.7241803 307.94797472 41.7241803 307.94797472 43 309 C45.73870242 309.08857875 48.45274983 309.11530707 51.19140625 309.09765625 C51.91775269 309.09664917 52.64409912 309.09564209 53.39245605 309.09460449 C56.11582001 309.08935716 58.83916153 309.075396 61.5625 309.0625 C67.646875 309.041875 73.73125 309.02125 80 309 C80 288.54 80 268.08 80 247 C67.46 247 54.92 247 42 247 Z " fill="#030303" transform="translate(263,50)"/>
<path d="M0 0 C0.66 0.33 1.32 0.66 2 1 C0.84906278 4.45281166 -0.3205993 5.38082163 -3.0625 7.6875 C-3.79597656 8.31011719 -4.52945313 8.93273437 -5.28515625 9.57421875 C-5.85105469 10.04472656 -6.41695313 10.51523438 -7 11 C-7.66 10.67 -8.32 10.34 -9 10 C-7.8758824 8.70756532 -6.75067408 7.41607925 -5.625 6.125 C-4.99851562 5.40570313 -4.37203125 4.68640625 -3.7265625 3.9453125 C-2.52573166 2.5923402 -1.2791655 1.2791655 0 0 Z " fill="#3C3737" transform="translate(104,162)"/>
<path d="M0 0 C0.66 0.33 1.32 0.66 2 1 C-0.475 4.465 -0.475 4.465 -3 8 C-4.32 7.67 -5.64 7.34 -7 7 C-4.69 4.69 -2.38 2.38 0 0 Z " fill="#545353" transform="translate(139,132)"/>
<path d="M0 0 C0.66 0 1.32 0 2 0 C0.70700306 2.88437779 -0.65941363 4.87219421 -3 7 C-3.99 6.67 -4.98 6.34 -6 6 C-4.71034824 4.62437146 -3.37310707 3.29233607 -2 2 C-1.34 2 -0.68 2 0 2 C0 1.34 0 0.68 0 0 Z " fill="#464444" transform="translate(177,100)"/>
<path d="M0 0 C0 0.99 0 1.98 0 3 C-2.5 5.1875 -2.5 5.1875 -5 7 C-5.66 6.67 -6.32 6.34 -7 6 C-4.69 4.02 -2.38 2.04 0 0 Z " fill="#5E5A5C" transform="translate(186,93)"/>
</svg>
